<svg width="1397" height="1213" viewBox="0 0 1397 1213" fill="none" xmlns="http://www.w3.org/2000/svg">
<circle cx="49" cy="49" r="49" transform="matrix(1 0 0 -1 54.784 98)" fill="#CEEFC8"/>
<circle cx="49" cy="49" r="49" transform="matrix(1 0 0 -1 921.784 495)" fill="#F56363" fill-opacity="0.1"/>
<circle cx="37" cy="37" r="37" transform="matrix(1 0 0 -1 1322.78 607)" fill="#F3A7FF" fill-opacity="0.53"/>
<circle opacity="0.1" cx="37" cy="37" r="37" transform="matrix(1 0 0 -1 477.784 809)" fill="#F3A7FF"/>
<circle cx="22" cy="22" r="22" transform="matrix(1 0 0 -1 285.784 280)" fill="#3FBAFF" fill-opacity="0.1"/>
<circle cx="22" cy="22" r="22" transform="matrix(1 0 0 -1 1234.78 142)" fill="#C4C4C4" fill-opacity="0.1"/>
<circle cx="22" cy="22" r="22" transform="matrix(1 0 0 -1 1278.78 1213)" fill="#C4C4C4" fill-opacity="0.1"/>
<circle cx="32.784" cy="32.784" r="32.784" transform="matrix(1 0 0 -1 0 684.784)" fill="#FF8A00" fill-opacity="0.51"/>
<circle opacity="0.2" cx="22" cy="22" r="22" transform="matrix(1 0 0 -1 214.784 1144)" fill="#FF8A00"/>
</svg>
