<svg width="35" height="25" viewBox="0 0 35 25" fill="none" xmlns="http://www.w3.org/2000/svg">
<path d="M34.4024 7.98193C34.4024 12.0184 33.0613 15.4429 30.379 18.2554C27.6967 21.0939 23.7253 23.2163 18.4649 24.6226L18.4649 21.0288C20.1055 20.534 21.5118 19.896 22.6837 19.1147C23.8295 18.3335 24.741 17.4351 25.418 16.4194C26.0691 15.4298 26.3946 14.4793 26.3946 13.5679C26.3946 12.9689 26.1993 12.4611 25.8087 12.0444C25.392 11.6538 24.5847 11.146 23.3868 10.521C21.3816 9.45329 20.379 7.8387 20.379 5.67724C20.379 4.0887 20.9649 2.81266 22.1368 1.84912C23.2826 0.91162 24.8061 0.44287 26.7071 0.44287C28.9206 0.44287 30.7566 1.146 32.2149 2.55225C33.6732 3.98454 34.4024 5.79443 34.4024 7.98193ZM16.8243 7.98193C16.8243 12.0184 15.4831 15.4429 12.8008 18.2554C10.1186 21.0939 6.1472 23.2163 0.886784 24.6226L0.886785 21.0288C2.52741 20.534 3.93366 19.896 5.10553 19.1147C6.25137 18.3335 7.16283 17.4351 7.83991 16.4194C8.49095 15.4298 8.81647 14.4793 8.81647 13.5679C8.81647 12.9689 8.62116 12.4611 8.23054 12.0444C7.81387 11.6538 7.00658 11.146 5.80866 10.521C3.80345 9.45328 2.80085 7.8387 2.80085 5.67724C2.80085 4.0887 3.38679 2.81266 4.55866 1.84912C5.70449 0.911618 7.22793 0.442868 9.12897 0.442869C11.3425 0.442869 13.1785 1.14599 14.6368 2.55224C16.0951 3.98454 16.8243 5.79443 16.8243 7.98193Z" fill="#311F09"/>
</svg>
