<svg width="50" height="50" viewBox="0 0 50 50" fill="none" xmlns="http://www.w3.org/2000/svg">
<circle opacity="0.1" cx="25" cy="25" r="25" fill="#D0CCC7"/>
<path d="M18.5 18.92H32.7558C33.3947 18.92 33.8698 19.5111 33.7324 20.1351L32.6915 24.8604C32.2876 26.6941 30.6628 28 28.7852 28H22.5451C21.0769 28 19.8245 26.9375 19.5852 25.489L18.5 18.92ZM18.5 18.92L17.963 17.352C17.6861 16.5433 16.9257 16 16.0709 16H16" stroke="#311F09" stroke-width="1.5" stroke-linecap="round"/>
<path d="M31 31H20.5C19.6716 31 19 30.3284 19 29.5V29.5C19 28.6716 19.6716 28 20.5 28H23" stroke="#311F09" stroke-width="1.5" stroke-linecap="round"/>
<circle cx="21" cy="33" r="1.25" stroke="#311F09" stroke-width="1.5"/>
<circle cx="29" cy="33" r="1.25" stroke="#311F09" stroke-width="1.5"/>
<circle cx="39" cy="15" r="8" fill="#FF3838"/>
<path d="M37.464 13.608C37.496 13.112 37.6853 12.7253 38.032 12.448C38.384 12.1707 38.832 12.032 39.376 12.032C39.7493 12.032 40.072 12.0987 40.344 12.232C40.616 12.3653 40.8213 12.5467 40.96 12.776C41.0987 13.0053 41.168 13.264 41.168 13.552C41.168 13.8827 41.08 14.1653 40.904 14.4C40.728 14.6347 40.5173 14.792 40.272 14.872V14.904C40.5867 15 40.832 15.176 41.008 15.432C41.184 15.6827 41.272 16.0053 41.272 16.4C41.272 16.7147 41.2 16.9947 41.056 17.24C40.912 17.4853 40.6987 17.68 40.416 17.824C40.1333 17.9627 39.7947 18.032 39.4 18.032C38.824 18.032 38.3493 17.8853 37.976 17.592C37.608 17.2933 37.4107 16.8667 37.384 16.312H38.264C38.2853 16.5947 38.3947 16.8267 38.592 17.008C38.7893 17.184 39.056 17.272 39.392 17.272C39.7173 17.272 39.968 17.184 40.144 17.008C40.32 16.8267 40.408 16.5947 40.408 16.312C40.408 15.9387 40.288 15.6747 40.048 15.52C39.8133 15.36 39.4507 15.28 38.96 15.28H38.752V14.528H38.968C39.4 14.5227 39.728 14.4507 39.952 14.312C40.1813 14.1733 40.296 13.9547 40.296 13.656C40.296 13.4 40.2133 13.1973 40.048 13.048C39.8827 12.8933 39.648 12.816 39.344 12.816C39.0453 12.816 38.8133 12.8933 38.648 13.048C38.4827 13.1973 38.384 13.384 38.352 13.608H37.464Z" fill="white"/>
</svg>
