<svg width="17" height="16" viewBox="0 0 17 16" fill="none" xmlns="http://www.w3.org/2000/svg">
<path d="M6.7186 1.23748C7.2467 -0.387848 9.54611 -0.387847 10.0742 1.23748L10.7729 3.38771C11.009 4.11458 11.6864 4.60671 12.4507 4.60671H14.7115C16.4205 4.60671 17.1311 6.79357 15.7485 7.79808L13.9194 9.127C13.3011 9.57623 13.0424 10.3725 13.2785 11.0994L13.9772 13.2496C14.5053 14.8749 12.645 16.2265 11.2624 15.222L9.43334 13.8931C8.81503 13.4438 7.97778 13.4438 7.35946 13.8931L5.53037 15.222C4.14778 16.2265 2.28752 14.8749 2.81562 13.2496L3.51428 11.0994C3.75045 10.3725 3.49172 9.57623 2.87341 9.127L1.04432 7.79808C-0.33827 6.79357 0.372286 4.60671 2.08126 4.60671H4.34214C5.10642 4.60671 5.78377 4.11458 6.01995 3.38771L6.7186 1.23748Z" fill="white"/>
</svg>
